<svg width="51" height="40" viewBox="0 0 51 40" fill="none" xmlns="http://www.w3.org/2000/svg">
<path d="M41.9453 0.929026C40.3507 0.329727 38.6164 0 36.8039 0H14.1863C12.763 0 11.3863 0.202095 10.0954 0.576401C4.25446 2.26957 0 7.48285 0 13.6624V17.2128V20.7631C0 26.9353 4.25446 32.1564 10.0954 33.8491C11.3944 34.2234 12.7634 34.4255 14.1863 34.4255H28.9559L22.4306 28.1413L22.3606 28.0738L21.4583 27.2053L20.673 26.4485C20.3072 26.0963 20.074 25.6545 19.981 25.1971C19.919 24.8903 19.919 24.5753 19.981 24.2685C20.043 23.9613 20.1675 23.6619 20.3463 23.3992C20.4398 23.2646 20.5485 23.137 20.6653 23.0172L20.704 22.9795C21.0773 22.6277 21.5284 22.4031 22.0029 22.3131C22.0416 22.3054 22.0883 22.3054 22.1274 22.298H22.8431H25.3552H25.3709H28.972C31.8732 22.2906 34.2298 20.0211 34.2298 17.2197C34.2298 17.2119 34.2298 17.2119 34.2298 17.2046C34.2298 17.1972 34.2298 17.1899 34.2298 17.1899C34.2298 14.3881 31.8808 12.1189 28.972 12.1112H25.3709H25.3552H16.5353H16.4419H14.0538C13.5326 12.1112 13.0429 11.9614 12.6461 11.6992C12.3815 11.527 12.1483 11.302 11.9695 11.0402C11.7907 10.778 11.6586 10.4932 11.5885 10.1713C11.5575 10.0138 11.5341 9.84936 11.5341 9.6845V9.63214C11.5341 9.13021 11.6896 8.66591 11.9618 8.27646C12.1407 8.01425 12.3739 7.79702 12.6385 7.61743C12.9108 7.44521 13.2136 7.31799 13.5407 7.2509C13.7038 7.22104 13.875 7.19813 14.0462 7.19813H25.3628H29.0179C32.8056 7.19813 36.1115 9.16825 37.9002 12.0972C38.359 12.8389 38.7166 13.6476 38.9579 14.5018C38.9579 14.5092 38.9655 14.5317 38.9655 14.539C39.0433 14.8017 39.0976 15.0712 39.1601 15.3408C39.2068 15.5728 39.2459 15.8051 39.2692 16.0448C39.2769 16.0894 39.2769 16.1422 39.2845 16.1872C39.3236 16.5169 39.3465 16.854 39.3465 17.1989C39.3465 17.5355 39.3232 17.8726 39.2845 18.2101C39.2769 18.2547 39.2769 18.307 39.2692 18.3524C39.2459 18.5922 39.2072 18.8241 39.1601 19.0569C39.1057 19.3261 39.0437 19.596 38.9655 19.8583C38.9579 19.873 38.9579 19.8808 38.9579 19.8959C38.7166 20.7496 38.359 21.551 37.9002 22.3C36.1034 25.229 32.8056 27.1992 29.0179 27.1992H28.6603L36.1578 34.4198L40.7623 38.8542L41.952 40V33.4912C47.2485 31.5059 50.9975 26.5549 50.9975 20.7574V17.2066V13.6562C50.9907 7.86493 47.2417 2.91387 41.9453 0.929026Z" fill="#EE4037"/>
</svg>
