<svg width="145" height="40" viewBox="0 0 145 40" fill="none" xmlns="http://www.w3.org/2000/svg">
<path d="M67.7987 15.1907H65.5508L62.9219 11.6399H57.9364V15.1907H55.9766V5.52786H64.0887C65.1545 5.52786 66.0019 5.80522 66.6318 6.35911C67.2618 6.91341 67.5807 7.65507 67.5807 8.59145C67.5807 10.1942 66.7486 11.1756 65.084 11.5278L67.7987 15.1907ZM63.8008 9.94018C64.9829 9.94018 65.5818 9.49837 65.5818 8.62172C65.5818 7.68534 64.9519 7.22104 63.692 7.22104H57.9441V9.93976H63.8008V9.94018Z" fill="#050505"/>
<path d="M81.8689 15.1907H71.0654V5.52786H81.4956V7.22799H73.0253V9.31797H78.913V11.0107H73.0253V13.4975H81.8689V15.1907Z" fill="#050505"/>
<path d="M96.6073 5.52786L91.062 15.1907H88.8061L83.2607 5.52786H85.4228L89.9338 13.5499L94.4448 5.52786H96.6073Z" fill="#050505"/>
<path d="M109.565 15.1907H98.7617V5.52786H109.192V7.22799H100.722V9.31797H106.61V11.0107H100.722V13.4975H109.565V15.1907Z" fill="#050505"/>
<path d="M124.397 15.1907H122.149L119.521 11.6399H114.535V15.1907H112.575V5.52786H120.688C121.754 5.52786 122.601 5.80522 123.231 6.35911C123.861 6.91341 124.18 7.65507 124.18 8.59145C124.18 10.1942 123.347 11.1756 121.683 11.5278L124.397 15.1907ZM120.399 9.94018C121.582 9.94018 122.18 9.49837 122.18 8.62172C122.18 7.68534 121.551 7.22104 120.29 7.22104H114.543V9.93976H120.399V9.94018Z" fill="#050505"/>
<path d="M129.624 15.1907H127.664V5.52786H129.624V15.1907Z" fill="#050505"/>
<path d="M144.34 15.1907H133.536V5.52786H143.966V7.22799H135.496V9.31797H141.384V11.0107H135.496V13.4975H144.339L144.34 15.1907Z" fill="#050505"/>
<path d="M58.8542 26.5238H55.9688V21.5727H56.8089V25.812H58.8542V26.5238Z" fill="#050505"/>
<path d="M62.9682 24.0219V25.6696C62.9762 25.7743 62.9992 25.8566 63.0535 25.9016C63.1079 25.9539 63.1861 25.9838 63.2948 25.9989L63.2714 26.5982C62.8437 26.5982 62.5094 26.5082 62.2758 26.3286C61.8791 26.5082 61.4747 26.5982 61.0703 26.5982C60.3236 26.5982 59.9502 26.2157 59.9502 25.452C59.9502 25.085 60.0513 24.8228 60.2535 24.658C60.4561 24.4935 60.767 24.3957 61.1867 24.3585L62.1513 24.2763V24.0141C62.1513 23.8189 62.105 23.6844 62.0192 23.6099C61.9334 23.5346 61.8013 23.4974 61.6301 23.4974C61.3111 23.4974 60.9068 23.5199 60.4323 23.5571L60.191 23.5723L60.16 23.018C60.7046 22.8907 61.2101 22.831 61.6692 22.831C62.128 22.831 62.4546 22.928 62.6568 23.1153C62.8671 23.3105 62.9682 23.6103 62.9682 24.0219ZM61.2882 24.921C60.9459 24.9509 60.767 25.1309 60.767 25.4602C60.767 25.7895 60.9225 25.9621 61.2258 25.9621C61.4747 25.9621 61.7389 25.9245 62.0192 25.85L62.1513 25.805V24.8461L61.2882 24.921Z" fill="#050505"/>
<path d="M65.5664 26.5238H64.75V22.9059H65.5588V23.1309C65.9241 22.9284 66.2664 22.8237 66.5931 22.8237C67.0909 22.8237 67.4333 22.9583 67.6197 23.2356C67.7986 23.5052 67.892 23.9548 67.892 24.5839V26.5238H67.0832V24.606C67.0832 24.2166 67.0365 23.9392 66.9507 23.7748C66.8649 23.6103 66.6861 23.5277 66.4138 23.5277C66.1573 23.5277 65.916 23.5727 65.6751 23.6705L65.5664 23.715V26.5238Z" fill="#050505"/>
<path d="M72.8766 27.0184C72.8766 27.812 72.2857 28.2018 71.0955 28.2018C70.5281 28.2018 70.1003 28.127 69.828 27.9772C69.5558 27.8275 69.416 27.5579 69.416 27.1607C69.416 26.9811 69.4623 26.831 69.5481 26.7038C69.6416 26.5761 69.7813 26.4342 69.9835 26.2918C69.8204 26.1871 69.7346 26.0075 69.7346 25.7678C69.7346 25.6704 69.8047 25.513 69.9368 25.2957L70.0069 25.191C69.6492 24.9811 69.4704 24.6216 69.4704 24.1049C69.4704 23.6705 69.6025 23.3559 69.8748 23.1538C70.147 22.9517 70.5123 22.8466 70.9715 22.8466C71.1894 22.8466 71.4069 22.8691 71.6248 22.9214L71.7335 22.9444L72.8999 22.9145V23.5514L72.2781 23.5138C72.4106 23.686 72.4803 23.8803 72.4803 24.1053C72.4803 24.577 72.3558 24.9067 72.1069 25.0863C71.858 25.2659 71.4693 25.3559 70.9481 25.3559C70.8156 25.3559 70.7069 25.3485 70.6215 25.326C70.5514 25.4909 70.5128 25.6181 70.5128 25.7085C70.5128 25.7981 70.5595 25.8578 70.6529 25.8954C70.7464 25.9331 70.9715 25.9482 71.3219 25.9552C71.9209 25.9629 72.3252 26.0374 72.5431 26.1875C72.7678 26.3213 72.8766 26.6064 72.8766 27.0184ZM70.2171 27.0928C70.2171 27.2654 70.2872 27.3853 70.427 27.4524C70.5671 27.5276 70.808 27.5575 71.1503 27.5575C71.7569 27.5575 72.0606 27.3927 72.0606 27.0552C72.0606 26.8682 72.0062 26.7484 71.8971 26.6956C71.7883 26.6432 71.5785 26.6207 71.2514 26.6134L70.5123 26.5688C70.4036 26.6588 70.3259 26.7332 70.2791 26.8085C70.2401 26.8907 70.2171 26.9807 70.2171 27.0928ZM70.4427 24.5835C70.5514 24.6887 70.7302 24.741 70.9792 24.741C71.2281 24.741 71.3993 24.6887 71.508 24.5835C71.6167 24.4784 71.6711 24.3139 71.6711 24.0967C71.6711 23.8721 71.6167 23.7146 71.508 23.6103C71.3993 23.5052 71.2204 23.4528 70.9715 23.4528C70.5123 23.4528 70.2791 23.6701 70.2791 24.0967C70.2791 24.3217 70.3335 24.4788 70.4427 24.5835Z" fill="#050505"/>
<path d="M76.5642 22.9132H77.373V26.5311H76.5642V26.3065C76.1989 26.5086 75.8642 26.6133 75.5528 26.6133C75.0397 26.6133 74.6897 26.4787 74.5181 26.2092C74.3397 25.9396 74.2539 25.4749 74.2539 24.8011V22.9136H75.0707V24.8089C75.0707 25.2433 75.1098 25.535 75.1795 25.6851C75.2576 25.8349 75.4284 25.9101 75.7087 25.9101C75.981 25.9101 76.2299 25.8651 76.4555 25.7678L76.5642 25.7228V22.9132Z" fill="#050505"/>
<path d="M81.8919 24.0219V25.6696C81.8995 25.7743 81.9229 25.8566 81.9773 25.9016C82.0316 25.9539 82.1094 25.9838 82.2181 25.9989L82.1947 26.5982C81.767 26.5982 81.4327 26.5082 81.1991 26.3286C80.8019 26.5082 80.398 26.5982 79.9932 26.5982C79.2464 26.5982 78.873 26.2157 78.873 25.452C78.873 25.085 78.9741 24.8228 79.1768 24.658C79.3794 24.4935 79.6903 24.3957 80.11 24.3585L81.0746 24.2763V24.0141C81.0746 23.8189 81.0279 23.6844 80.9421 23.6099C80.8567 23.5346 80.7242 23.4974 80.553 23.4974C80.2344 23.4974 79.8301 23.5199 79.3556 23.5571L79.1147 23.5723L79.0837 23.018C79.6283 22.8907 80.1338 22.831 80.5925 22.831C81.0513 22.831 81.3783 22.928 81.5805 23.1153C81.7908 23.3105 81.8919 23.6103 81.8919 24.0219ZM80.2119 24.921C79.8696 24.9509 79.6907 25.1309 79.6907 25.4602C79.6907 25.7895 79.8458 25.9621 80.1495 25.9621C80.3984 25.9621 80.663 25.9245 80.9425 25.85L81.075 25.805V24.8461L80.2119 24.921Z" fill="#050505"/>
<path d="M86.9469 27.0184C86.9469 27.812 86.3556 28.2018 85.1663 28.2018C84.5979 28.2018 84.1706 28.127 83.8984 27.9772C83.6261 27.8275 83.4863 27.5579 83.4863 27.1607C83.4863 26.9811 83.5326 26.831 83.6184 26.7038C83.7119 26.5761 83.8516 26.4342 84.0538 26.2918C83.8903 26.1871 83.8049 26.0075 83.8049 25.7678C83.8049 25.6704 83.875 25.513 84.0075 25.2957L84.0772 25.191C83.7195 24.9811 83.5403 24.6216 83.5403 24.1049C83.5403 23.6705 83.6732 23.3559 83.9451 23.1538C84.2169 22.9517 84.5827 22.8466 85.0418 22.8466C85.2593 22.8466 85.4772 22.8691 85.6947 22.9214L85.8039 22.9444L86.9707 22.9145V23.5514L86.3484 23.5138C86.4805 23.686 86.5506 23.8803 86.5506 24.1053C86.5506 24.577 86.4261 24.9067 86.1772 25.0863C85.9283 25.2659 85.5397 25.3559 85.018 25.3559C84.8855 25.3559 84.7772 25.3485 84.6914 25.326C84.6213 25.4909 84.5822 25.6181 84.5822 25.7085C84.5822 25.7981 84.629 25.8578 84.722 25.8954C84.8159 25.9331 85.0414 25.9482 85.391 25.9552C85.9899 25.9629 86.3943 26.0374 86.6122 26.1875C86.8382 26.3213 86.9469 26.6064 86.9469 27.0184ZM84.2951 27.0928C84.2951 27.2654 84.3647 27.3853 84.5049 27.4524C84.6447 27.5276 84.8855 27.5575 85.2283 27.5575C85.8349 27.5575 86.1382 27.3927 86.1382 27.0552C86.1382 26.8682 86.0838 26.7484 85.975 26.6956C85.8659 26.6432 85.656 26.6207 85.329 26.6134L84.5903 26.5688C84.4816 26.6588 84.4038 26.7332 84.3571 26.8085C84.3184 26.8907 84.2951 26.9807 84.2951 27.0928ZM84.5206 24.5835C84.6294 24.6887 84.8082 24.741 85.0571 24.741C85.306 24.741 85.4772 24.6887 85.586 24.5835C85.6947 24.4784 85.7495 24.3139 85.7495 24.0967C85.7495 23.8721 85.6947 23.7146 85.586 23.6103C85.4772 23.5052 85.298 23.4528 85.049 23.4528C84.5903 23.4528 84.3571 23.6701 84.3571 24.0967C84.3495 24.3217 84.4115 24.4788 84.5206 24.5835Z" fill="#050505"/>
<path d="M91.0308 25.8795L91.2406 25.8566L91.2559 26.4411C90.6884 26.5532 90.1829 26.606 89.7395 26.606C89.1873 26.606 88.7829 26.4559 88.5421 26.1638C88.3012 25.8717 88.1768 25.4 88.1768 24.7557C88.1768 23.4749 88.7209 22.831 89.8019 22.831C90.8524 22.831 91.3812 23.3849 91.3812 24.4862L91.3268 25.0482H89.0089C89.0169 25.3477 89.079 25.5649 89.2115 25.7073C89.3436 25.8496 89.5849 25.9167 89.9425 25.9167C90.2917 25.9167 90.6574 25.902 91.0308 25.8795ZM90.5797 24.4416C90.5797 24.082 90.5176 23.8349 90.4004 23.6925C90.284 23.5502 90.0818 23.4827 89.8015 23.4827C89.522 23.4827 89.3194 23.5575 89.1873 23.7073C89.0628 23.857 88.9927 24.1045 88.9851 24.4416H90.5797Z" fill="#050505"/>
<path d="M94.9268 22.2919V21.5727H98.6834V22.2919H97.2371V26.5312H96.3965V22.2919H94.9268Z" fill="#050505"/>
<path d="M102.106 25.8795L102.316 25.8566L102.331 26.4411C101.764 26.5532 101.258 26.606 100.815 26.606C100.262 26.606 99.8581 26.4559 99.6172 26.1638C99.3764 25.8717 99.252 25.4 99.252 24.7557C99.252 23.4749 99.7961 22.831 100.877 22.831C101.928 22.831 102.456 23.3849 102.456 24.4862L102.402 25.0482H100.076C100.084 25.3477 100.146 25.5649 100.279 25.7073C100.411 25.8496 100.652 25.9167 101.01 25.9167C101.367 25.9167 101.733 25.902 102.106 25.8795ZM101.655 24.4416C101.655 24.082 101.593 23.8349 101.476 23.6925C101.359 23.5502 101.157 23.4827 100.877 23.4827C100.597 23.4827 100.395 23.5575 100.262 23.7073C100.138 23.857 100.068 24.1045 100.06 24.4416H101.655Z" fill="#050505"/>
<path d="M105.404 22.831C105.668 22.831 105.979 22.8683 106.345 22.9358L106.532 22.9734L106.501 23.5952C106.103 23.5576 105.816 23.5355 105.622 23.5355C105.241 23.5355 104.984 23.6177 104.859 23.7825C104.727 23.947 104.665 24.2542 104.665 24.7116C104.665 25.1611 104.727 25.4753 104.852 25.6479C104.976 25.8202 105.24 25.9102 105.629 25.9102L106.508 25.8504L106.532 26.4796C106.026 26.5696 105.645 26.6072 105.389 26.6072C104.821 26.6072 104.416 26.4571 104.183 26.165C103.949 25.8729 103.833 25.3861 103.833 24.712C103.833 24.0378 103.957 23.5584 104.198 23.2663C104.447 22.9734 104.844 22.831 105.404 22.831Z" fill="#050505"/>
<path d="M108.88 26.5238H108.063V21.4078H108.88V23.1006C109.253 22.921 109.596 22.8314 109.907 22.8314C110.404 22.8314 110.747 22.966 110.933 23.2434C111.112 23.5129 111.205 23.9625 111.205 24.5917V26.5315H110.389V24.6138C110.389 24.2243 110.35 23.947 110.265 23.7825C110.179 23.6177 110 23.5355 109.728 23.5355C109.487 23.5355 109.246 23.5731 109.004 23.6475L108.888 23.6925V26.5238H108.88Z" fill="#050505"/>
<path d="M113.733 26.5238H112.917V22.9059H113.726V23.1309C114.091 22.9284 114.433 22.8237 114.76 22.8237C115.258 22.8237 115.6 22.9583 115.787 23.2356C115.966 23.5052 116.059 23.9548 116.059 24.5839V26.5238H115.25V24.606C115.25 24.2166 115.204 23.9392 115.118 23.7748C115.032 23.6103 114.854 23.5277 114.581 23.5277C114.325 23.5277 114.083 23.5727 113.843 23.6705L113.733 23.715V26.5238Z" fill="#050505"/>
<path d="M117.973 23.3031C118.229 22.9881 118.657 22.8315 119.264 22.8315C119.862 22.8315 120.29 22.9885 120.555 23.3031C120.811 23.6177 120.944 24.0898 120.944 24.7112C120.944 25.3403 120.819 25.812 120.571 26.127C120.322 26.4416 119.886 26.6064 119.271 26.6064C118.657 26.6064 118.221 26.4489 117.972 26.127C117.723 25.812 117.599 25.333 117.599 24.7112C117.584 24.0894 117.708 23.6173 117.973 23.3031ZM118.58 25.6549C118.696 25.85 118.922 25.9474 119.256 25.9474C119.591 25.9474 119.816 25.85 119.933 25.6549C120.049 25.4602 120.104 25.1456 120.104 24.7112C120.104 24.2694 120.042 23.9621 119.917 23.7748C119.793 23.5952 119.575 23.4974 119.256 23.4974C118.937 23.4974 118.712 23.5874 118.595 23.7748C118.47 23.9544 118.408 24.2694 118.408 24.7112C118.408 25.1452 118.463 25.4602 118.58 25.6549Z" fill="#050505"/>
<path d="M122.538 26.5238V21.4078H123.355V26.5238H122.538Z" fill="#050505"/>
<path d="M125.346 23.3031C125.602 22.9881 126.03 22.8315 126.637 22.8315C127.236 22.8315 127.663 22.9885 127.928 23.3031C128.185 23.6177 128.317 24.0898 128.317 24.7112C128.317 25.3403 128.192 25.812 127.943 26.127C127.694 26.4416 127.259 26.6064 126.644 26.6064C126.03 26.6064 125.594 26.4489 125.345 26.127C125.096 25.812 124.972 25.333 124.972 24.7112C124.964 24.0894 125.089 23.6173 125.346 23.3031ZM125.96 25.6549C126.076 25.85 126.302 25.9474 126.637 25.9474C126.971 25.9474 127.197 25.85 127.314 25.6549C127.43 25.4602 127.485 25.1456 127.485 24.7112C127.485 24.2694 127.422 23.9621 127.298 23.7748C127.174 23.5952 126.956 23.4974 126.637 23.4974C126.318 23.4974 126.093 23.5874 125.976 23.7748C125.851 23.9544 125.789 24.2694 125.789 24.7112C125.789 25.1452 125.844 25.4602 125.96 25.6549Z" fill="#050505"/>
<path d="M133.147 27.0184C133.147 27.812 132.555 28.2018 131.365 28.2018C130.798 28.2018 130.37 28.127 130.098 27.9772C129.826 27.8275 129.686 27.5579 129.686 27.1607C129.686 26.9811 129.732 26.831 129.818 26.7038C129.912 26.5761 130.052 26.4342 130.253 26.2918C130.09 26.1871 130.005 26.0075 130.005 25.7678C130.005 25.6704 130.075 25.513 130.207 25.2957L130.277 25.191C129.919 24.9811 129.74 24.6216 129.74 24.1049C129.74 23.6705 129.872 23.3559 130.145 23.1538C130.417 22.9517 130.782 22.8466 131.241 22.8466C131.459 22.8466 131.676 22.8691 131.894 22.9214L132.003 22.9444L133.17 22.9145V23.5514L132.548 23.5138C132.68 23.686 132.75 23.8803 132.75 24.1053C132.75 24.577 132.626 24.9067 132.377 25.0863C132.128 25.2659 131.739 25.3559 131.218 25.3559C131.085 25.3559 130.977 25.3485 130.891 25.326C130.821 25.4909 130.782 25.6181 130.782 25.7085C130.782 25.7981 130.829 25.8578 130.922 25.8954C131.015 25.9331 131.241 25.9482 131.591 25.9552C132.19 25.9629 132.594 26.0374 132.812 26.1875C133.038 26.3213 133.147 26.6064 133.147 27.0184ZM130.494 27.0928C130.494 27.2654 130.564 27.3853 130.705 27.4524C130.844 27.5276 131.086 27.5575 131.428 27.5575C132.034 27.5575 132.338 27.3927 132.338 27.0552C132.338 26.8682 132.283 26.7484 132.174 26.6956C132.066 26.6432 131.856 26.6207 131.529 26.6134L130.79 26.5688C130.681 26.6588 130.603 26.7332 130.556 26.8085C130.518 26.8907 130.494 26.9807 130.494 27.0928ZM130.72 24.5835C130.829 24.6887 131.008 24.741 131.257 24.741C131.506 24.741 131.677 24.6887 131.786 24.5835C131.895 24.4784 131.949 24.3139 131.949 24.0967C131.949 23.8721 131.895 23.7146 131.786 23.6103C131.677 23.5052 131.498 23.4528 131.249 23.4528C130.79 23.4528 130.556 23.6701 130.556 24.0967C130.556 24.3217 130.611 24.4788 130.72 24.5835Z" fill="#050505"/>
<path d="M134.562 22.2988V21.4676H135.379V22.2988H134.562ZM134.562 26.5238V22.9059H135.379V26.5238H134.562Z" fill="#050505"/>
<path d="M139.797 25.8795L140.007 25.8566L140.022 26.4411C139.454 26.5532 138.949 26.606 138.506 26.606C137.953 26.606 137.549 26.4559 137.308 26.1638C137.067 25.8717 136.942 25.4 136.942 24.7557C136.942 23.4749 137.487 22.831 138.568 22.831C139.618 22.831 140.147 23.3849 140.147 24.4862L140.092 25.0482H137.767C137.775 25.3477 137.837 25.5649 137.969 25.7073C138.102 25.8496 138.342 25.9167 138.7 25.9167C139.05 25.9167 139.416 25.902 139.797 25.8795ZM139.346 24.4416C139.346 24.082 139.284 23.8349 139.167 23.6925C139.05 23.5502 138.848 23.4827 138.568 23.4827C138.288 23.4827 138.085 23.5575 137.954 23.7073C137.829 23.857 137.759 24.1045 137.751 24.4416H139.346Z" fill="#050505"/>
<path d="M144.292 23.6549C143.7 23.5796 143.273 23.5428 143.008 23.5428C142.744 23.5428 142.557 23.5727 142.456 23.6328C142.355 23.693 142.301 23.7903 142.301 23.9171C142.301 24.0448 142.355 24.1421 142.472 24.1945C142.581 24.2469 142.853 24.3066 143.265 24.3818C143.685 24.4493 143.981 24.5614 144.152 24.7116C144.331 24.8613 144.416 25.1235 144.416 25.5052C144.416 25.8877 144.292 26.1642 144.035 26.3442C143.779 26.5238 143.413 26.6138 142.931 26.6138C142.627 26.6138 142.238 26.5761 141.772 26.4939L141.538 26.4563L141.569 25.7973C142.168 25.8725 142.604 25.9097 142.868 25.9097C143.133 25.9097 143.319 25.8799 143.436 25.8124C143.545 25.7527 143.607 25.6479 143.607 25.4974C143.607 25.355 143.553 25.2503 143.443 25.198C143.335 25.1456 143.078 25.0859 142.673 25.0184C142.269 24.9513 141.966 24.8539 141.779 24.7116C141.593 24.5692 141.491 24.3143 141.491 23.9474C141.491 23.5731 141.624 23.2957 141.888 23.1162C142.153 22.9366 142.487 22.8388 142.899 22.8388C143.218 22.8388 143.615 22.8764 144.081 22.9513L144.315 22.9959L144.292 23.6549Z" fill="#050505"/>
<path d="M41.9453 0.929026C40.3507 0.329727 38.6164 0 36.8039 0H14.1863C12.763 0 11.3863 0.202095 10.0954 0.576401C4.25446 2.26957 0 7.48285 0 13.6624V17.2128V20.7631C0 26.9353 4.25446 32.1564 10.0954 33.8491C11.3944 34.2234 12.7634 34.4255 14.1863 34.4255H28.9559L22.4306 28.1413L22.3606 28.0738L21.4583 27.2053L20.673 26.4485C20.3072 26.0963 20.074 25.6545 19.981 25.1971C19.919 24.8903 19.919 24.5753 19.981 24.2685C20.043 23.9613 20.1675 23.6619 20.3463 23.3992C20.4398 23.2646 20.5485 23.137 20.6653 23.0172L20.704 22.9795C21.0773 22.6277 21.5284 22.4031 22.0029 22.3131C22.0416 22.3054 22.0883 22.3054 22.1274 22.298H22.8431H25.3552H25.3709H28.972C31.8732 22.2906 34.2298 20.0211 34.2298 17.2197C34.2298 17.2119 34.2298 17.2119 34.2298 17.2046C34.2298 17.1972 34.2298 17.1899 34.2298 17.1899C34.2298 14.3881 31.8808 12.1189 28.972 12.1112H25.3709H25.3552H16.5353H16.4419H14.0538C13.5326 12.1112 13.0429 11.9614 12.6461 11.6992C12.3815 11.527 12.1483 11.302 11.9695 11.0402C11.7907 10.778 11.6586 10.4932 11.5885 10.1713C11.5575 10.0138 11.5341 9.84936 11.5341 9.6845V9.63214C11.5341 9.13021 11.6896 8.66591 11.9618 8.27646C12.1407 8.01425 12.3739 7.79702 12.6385 7.61743C12.9108 7.44521 13.2136 7.31799 13.5407 7.2509C13.7038 7.22104 13.875 7.19813 14.0462 7.19813H25.3628H29.0179C32.8056 7.19813 36.1115 9.16825 37.9002 12.0972C38.359 12.8389 38.7166 13.6476 38.9579 14.5018C38.9579 14.5092 38.9655 14.5317 38.9655 14.539C39.0433 14.8017 39.0976 15.0712 39.1601 15.3408C39.2068 15.5728 39.2459 15.8051 39.2692 16.0448C39.2769 16.0894 39.2769 16.1422 39.2845 16.1872C39.3236 16.5169 39.3465 16.854 39.3465 17.1989C39.3465 17.5355 39.3232 17.8726 39.2845 18.2101C39.2769 18.2547 39.2769 18.307 39.2692 18.3524C39.2459 18.5922 39.2072 18.8241 39.1601 19.0569C39.1057 19.3261 39.0437 19.596 38.9655 19.8583C38.9579 19.873 38.9579 19.8808 38.9579 19.8959C38.7166 20.7496 38.359 21.551 37.9002 22.3C36.1034 25.229 32.8056 27.1992 29.0179 27.1992H28.6603L36.1578 34.4198L40.7623 38.8542L41.952 40V33.4912C47.2485 31.5059 50.9975 26.5549 50.9975 20.7574V17.2066V13.6562C50.9907 7.86493 47.2417 2.91387 41.9453 0.929026Z" fill="#EE4037"/>
</svg>
