<?xml version="1.0" encoding="UTF-8"?>
<svg id="Layer_1" xmlns="http://www.w3.org/2000/svg" version="1.1" viewBox="0 0 145 40">
  <!-- Generator: Adobe Illustrator 29.4.0, SVG Export Plug-In . SVG Version: 2.1.0 Build 152)  -->
  <defs>
    <style>
      .st0 {
        fill: #fff;
      }
    </style>
  </defs>
  <path class="st0" d="M67.8,15.19h-2.25l-2.63-3.55h-4.99v3.55h-1.96V5.53h8.11c1.07,0,1.91.28,2.54.83.63.55.95,1.3.95,2.23,0,1.6-.83,2.58-2.5,2.94l2.71,3.66ZM63.8,9.94c1.18,0,1.78-.44,1.78-1.32,0-.94-.63-1.4-1.89-1.4h-5.75v2.72h5.86Z"/>
  <path class="st0" d="M81.87,15.19h-10.8V5.53h10.43v1.7h-8.47v2.09h5.89v1.69h-5.89v2.49h8.84v1.69Z"/>
  <path class="st0" d="M96.61,5.53l-5.55,9.66h-2.26l-5.55-9.66h2.16l4.51,8.02,4.51-8.02h2.16Z"/>
  <path class="st0" d="M109.57,15.19h-10.8V5.53h10.43v1.7h-8.47v2.09h5.89v1.69h-5.89v2.49h8.84v1.69Z"/>
  <path class="st0" d="M124.4,15.19h-2.25l-2.63-3.55h-4.99v3.55h-1.96V5.53h8.11c1.07,0,1.91.28,2.54.83.63.55.95,1.3.95,2.23,0,1.6-.83,2.58-2.5,2.94l2.71,3.66ZM120.4,9.94c1.18,0,1.78-.44,1.78-1.32,0-.94-.63-1.4-1.89-1.4h-5.75v2.72h5.86Z"/>
  <path class="st0" d="M129.62,15.19h-1.96V5.53h1.96v9.66Z"/>
  <path class="st0" d="M144.34,15.19h-10.8V5.53h10.43v1.7h-8.47v2.09h5.89v1.69h-5.89v2.49h8.84v1.69Z"/>
  <path class="st0" d="M58.85,26.52h-2.89v-4.95h.84v4.24h2.05v.71Z"/>
  <path class="st0" d="M62.97,24.02v1.65c0,.1.03.19.09.23.05.05.13.08.24.1l-.02.6c-.43,0-.76-.09-1-.27-.4.18-.8.27-1.21.27-.75,0-1.12-.38-1.12-1.15,0-.37.1-.63.3-.79.2-.16.51-.26.93-.3l.96-.08v-.26c0-.2-.05-.33-.13-.4-.09-.08-.22-.11-.39-.11-.32,0-.72.02-1.2.06l-.24.02-.03-.55c.54-.13,1.05-.19,1.51-.19s.79.1.99.28c.21.2.31.5.31.91ZM61.29,24.92c-.34.03-.52.21-.52.54s.16.5.46.5c.25,0,.51-.04.79-.11l.13-.05v-.96l-.86.07Z"/>
  <path class="st0" d="M65.57,26.52h-.82v-3.62h.81v.23c.37-.2.71-.31,1.03-.31.5,0,.84.13,1.03.41.18.27.27.72.27,1.35v1.94h-.81v-1.92c0-.39-.05-.67-.13-.83-.09-.16-.26-.25-.54-.25-.26,0-.5.05-.74.14l-.11.04v2.81Z"/>
  <path class="st0" d="M72.88,27.02c0,.79-.59,1.18-1.78,1.18-.57,0-1-.07-1.27-.22-.27-.15-.41-.42-.41-.82,0-.18.05-.33.13-.46.09-.13.23-.27.44-.41-.16-.1-.25-.28-.25-.52,0-.1.07-.25.2-.47l.07-.1c-.36-.21-.54-.57-.54-1.09,0-.43.13-.75.4-.95.27-.2.64-.31,1.1-.31.22,0,.44.02.65.07l.11.02,1.17-.03v.64l-.62-.04c.13.17.2.37.2.59,0,.47-.12.8-.37.98-.25.18-.64.27-1.16.27-.13,0-.24,0-.33-.03-.07.16-.11.29-.11.38s.05.15.14.19c.09.04.32.05.67.06.6,0,1,.08,1.22.23.22.13.33.42.33.83ZM70.22,27.09c0,.17.07.29.21.36.14.08.38.11.72.11.61,0,.91-.16.91-.5,0-.19-.05-.31-.16-.36-.11-.05-.32-.07-.65-.08l-.74-.04c-.11.09-.19.16-.23.24-.04.08-.06.17-.06.28ZM70.44,24.58c.11.11.29.16.54.16s.42-.05.53-.16c.11-.11.16-.27.16-.49s-.05-.38-.16-.49c-.11-.11-.29-.16-.54-.16-.46,0-.69.22-.69.64,0,.22.05.38.16.49Z"/>
  <path class="st0" d="M76.56,22.91h.81v3.62h-.81v-.22c-.37.2-.7.31-1.01.31-.51,0-.86-.13-1.03-.4-.18-.27-.26-.73-.26-1.41v-1.89h.82v1.9c0,.43.04.73.11.88.08.15.25.23.53.23s.52-.05.75-.14l.11-.05v-2.81Z"/>
  <path class="st0" d="M81.89,24.02v1.65c0,.1.03.19.09.23.05.05.13.08.24.1l-.02.6c-.43,0-.76-.09-1-.27-.4.18-.8.27-1.21.27-.75,0-1.12-.38-1.12-1.15,0-.37.1-.63.3-.79.2-.16.51-.26.93-.3l.96-.08v-.26c0-.2-.05-.33-.13-.4-.09-.08-.22-.11-.39-.11-.32,0-.72.02-1.2.06l-.24.02-.03-.55c.54-.13,1.05-.19,1.51-.19s.79.1.99.28c.21.2.31.5.31.91ZM80.21,24.92c-.34.03-.52.21-.52.54s.16.5.46.5c.25,0,.51-.04.79-.11l.13-.05v-.96l-.86.07Z"/>
  <path class="st0" d="M86.95,27.02c0,.79-.59,1.18-1.78,1.18-.57,0-1-.07-1.27-.22-.27-.15-.41-.42-.41-.82,0-.18.05-.33.13-.46.09-.13.23-.27.44-.41-.16-.1-.25-.28-.25-.52,0-.1.07-.25.2-.47l.07-.1c-.36-.21-.54-.57-.54-1.09,0-.43.13-.75.4-.95.27-.2.64-.31,1.1-.31.22,0,.44.02.65.07l.11.02,1.17-.03v.64l-.62-.04c.13.17.2.37.2.59,0,.47-.12.8-.37.98s-.64.27-1.16.27c-.13,0-.24,0-.33-.03-.07.16-.11.29-.11.38s.05.15.14.19c.09.04.32.05.67.06.6,0,1,.08,1.22.23.23.13.33.42.33.83ZM84.3,27.09c0,.17.07.29.21.36.14.08.38.11.72.11.61,0,.91-.16.91-.5,0-.19-.05-.31-.16-.36-.11-.05-.32-.07-.65-.08l-.74-.04c-.11.09-.19.16-.23.24-.04.08-.06.17-.06.28ZM84.52,24.58c.11.11.29.16.54.16s.42-.05.53-.16c.11-.11.16-.27.16-.49s-.05-.38-.16-.49c-.11-.11-.29-.16-.54-.16-.46,0-.69.22-.69.64,0,.22.05.38.16.49Z"/>
  <path class="st0" d="M91.03,25.88l.21-.02.02.58c-.57.11-1.07.16-1.52.16-.55,0-.96-.15-1.2-.44-.24-.29-.37-.76-.37-1.41,0-1.28.54-1.92,1.63-1.92s1.58.55,1.58,1.66l-.05.56h-2.32c0,.3.07.52.2.66.13.14.37.21.73.21s.71-.01,1.09-.04ZM90.58,24.44c0-.36-.06-.61-.18-.75-.12-.14-.32-.21-.6-.21s-.48.07-.61.22c-.12.15-.19.4-.2.73h1.59Z"/>
  <path class="st0" d="M94.93,22.29v-.72h3.76v.72h-1.45v4.24h-.84v-4.24h-1.47Z"/>
  <path class="st0" d="M102.11,25.88l.21-.02v.58c-.55.11-1.06.16-1.5.16-.55,0-.96-.15-1.2-.44-.24-.29-.37-.76-.37-1.41,0-1.28.54-1.92,1.62-1.92s1.58.55,1.58,1.66l-.05.56h-2.33c0,.3.07.52.2.66.13.14.37.21.73.21s.72-.01,1.1-.04ZM101.65,24.44c0-.36-.06-.61-.18-.75-.12-.14-.32-.21-.6-.21s-.48.07-.61.22c-.12.15-.19.4-.2.73h1.6Z"/>
  <path class="st0" d="M105.4,22.83c.26,0,.57.04.94.1l.19.04-.03.62c-.4-.04-.68-.06-.88-.06-.38,0-.64.08-.76.25-.13.16-.19.47-.19.93s.06.76.19.94c.12.17.39.26.78.26l.88-.06.02.63c-.51.09-.89.13-1.14.13-.57,0-.97-.15-1.21-.44-.23-.29-.35-.78-.35-1.45s.12-1.15.36-1.45c.25-.29.65-.44,1.21-.44Z"/>
  <path class="st0" d="M108.88,26.52h-.82v-5.12h.82v1.69c.37-.18.72-.27,1.03-.27.5,0,.84.13,1.03.41.18.27.27.72.27,1.35v1.94h-.82v-1.92c0-.39-.04-.67-.12-.83-.09-.16-.26-.25-.54-.25-.24,0-.48.04-.72.11l-.12.05v2.83h0Z"/>
  <path class="st0" d="M113.73,26.52h-.82v-3.62h.81v.23c.37-.2.71-.31,1.03-.31.5,0,.84.13,1.03.41.18.27.27.72.27,1.35v1.94h-.81v-1.92c0-.39-.05-.67-.13-.83-.09-.16-.26-.25-.54-.25-.26,0-.5.05-.74.14l-.11.04v2.81Z"/>
  <path class="st0" d="M117.97,23.3c.26-.32.68-.47,1.29-.47s1.03.16,1.29.47c.26.31.39.79.39,1.41s-.12,1.1-.37,1.42c-.25.31-.68.48-1.3.48s-1.05-.16-1.3-.48c-.25-.32-.37-.79-.37-1.42-.01-.62.11-1.09.37-1.41ZM118.58,25.65c.12.2.34.29.68.29s.56-.1.68-.29c.12-.19.17-.51.17-.94s-.06-.75-.19-.94c-.12-.18-.34-.28-.66-.28s-.54.09-.66.28c-.12.18-.19.49-.19.94s.06.75.17.94Z"/>
  <path class="st0" d="M122.54,26.52v-5.12h.82v5.12h-.82Z"/>
  <path class="st0" d="M125.35,23.3c.26-.32.68-.47,1.29-.47s1.03.16,1.29.47c.26.31.39.79.39,1.41s-.12,1.1-.37,1.42c-.25.31-.68.48-1.3.48s-1.05-.16-1.3-.48c-.25-.32-.37-.79-.37-1.42,0-.62.12-1.09.37-1.41ZM125.96,25.65c.12.2.34.29.68.29s.56-.1.68-.29c.12-.19.17-.51.17-.94s-.06-.75-.19-.94c-.12-.18-.34-.28-.66-.28s-.54.09-.66.28c-.12.18-.19.49-.19.94s.06.75.17.94Z"/>
  <path class="st0" d="M133.15,27.02c0,.79-.59,1.18-1.78,1.18-.57,0-1-.07-1.27-.22-.27-.15-.41-.42-.41-.82,0-.18.05-.33.13-.46.09-.13.23-.27.44-.41-.16-.1-.25-.28-.25-.52,0-.1.07-.25.2-.47l.07-.1c-.36-.21-.54-.57-.54-1.09,0-.43.13-.75.4-.95.27-.2.64-.31,1.1-.31.22,0,.43.02.65.07l.11.02,1.17-.03v.64l-.62-.04c.13.17.2.37.2.59,0,.47-.12.8-.37.98-.25.18-.64.27-1.16.27-.13,0-.24,0-.33-.03-.07.16-.11.29-.11.38s.05.15.14.19c.09.04.32.05.67.06.6,0,1,.08,1.22.23.23.13.34.42.34.83ZM130.49,27.09c0,.17.07.29.21.36.14.08.38.11.72.11.61,0,.91-.16.91-.5,0-.19-.05-.31-.16-.36-.11-.05-.32-.07-.64-.08l-.74-.04c-.11.09-.19.16-.23.24-.04.08-.06.17-.06.28ZM130.72,24.58c.11.11.29.16.54.16s.42-.05.53-.16c.11-.11.16-.27.16-.49s-.05-.38-.16-.49c-.11-.11-.29-.16-.54-.16-.46,0-.69.22-.69.64,0,.22.05.38.16.49Z"/>
  <path class="st0" d="M134.56,22.3v-.83h.82v.83h-.82ZM134.56,26.52v-3.62h.82v3.62h-.82Z"/>
  <path class="st0" d="M139.8,25.88l.21-.02v.58c-.55.11-1.06.16-1.5.16-.55,0-.96-.15-1.2-.44-.24-.29-.37-.76-.37-1.41,0-1.28.54-1.92,1.63-1.92s1.58.55,1.58,1.66l-.06.56h-2.32c0,.3.07.52.2.66.13.14.37.21.73.21s.72-.01,1.1-.04ZM139.35,24.44c0-.36-.06-.61-.18-.75-.12-.14-.32-.21-.6-.21s-.48.07-.61.22c-.12.15-.19.4-.2.73h1.59Z"/>
  <path class="st0" d="M144.29,23.65c-.59-.08-1.02-.11-1.28-.11s-.45.03-.55.09c-.1.06-.15.16-.15.28s.05.22.17.28c.11.05.38.11.79.19.42.07.72.18.89.33.18.15.26.41.26.79s-.12.66-.38.84c-.26.18-.62.27-1.1.27-.3,0-.69-.04-1.16-.12l-.23-.04.03-.66c.6.08,1.04.11,1.3.11s.45-.03.57-.1c.11-.06.17-.16.17-.32,0-.14-.05-.25-.16-.3-.11-.05-.36-.11-.77-.18-.4-.07-.71-.16-.89-.31-.19-.14-.29-.4-.29-.76s.13-.65.4-.83c.26-.18.6-.28,1.01-.28.32,0,.72.04,1.18.11l.23.04-.02.66Z"/>
  <path class="st0" d="M41.95.93c-1.59-.6-3.33-.93-5.14-.93H14.19c-1.42,0-2.8.2-4.09.58C4.25,2.27,0,7.48,0,13.66v7.1c0,6.17,4.25,11.39,10.1,13.09,1.3.37,2.67.58,4.09.58h14.77l-6.53-6.28-.07-.07-.9-.87-.79-.76c-.37-.35-.6-.79-.69-1.25-.06-.31-.06-.62,0-.93.06-.31.19-.61.37-.87.09-.13.2-.26.32-.38l.04-.04c.37-.35.82-.58,1.3-.67.04,0,.09,0,.12-.02h6.84c2.9,0,5.26-2.28,5.26-5.08v-.02h0c0-2.82-2.35-5.09-5.26-5.09h-14.92c-.52,0-1.01-.15-1.41-.41-.26-.17-.5-.4-.68-.66-.18-.26-.31-.55-.38-.87-.03-.16-.05-.32-.05-.49v-.05c0-.5.16-.97.43-1.36.18-.26.41-.48.68-.66.27-.17.58-.3.9-.37.16-.03.33-.05.51-.05h14.97c3.79,0,7.09,1.97,8.88,4.9.46.74.82,1.55,1.06,2.4,0,0,0,.03,0,.04.08.26.13.53.19.8.05.23.09.46.11.7,0,.04,0,.1.02.14.04.33.06.67.06,1.01s-.02.67-.06,1.01c0,.04,0,.1-.02.14-.02.24-.06.47-.11.7-.05.27-.12.54-.19.8,0,.01,0,.02,0,.04-.24.85-.6,1.66-1.06,2.4-1.8,2.93-5.09,4.9-8.88,4.9h-.36l7.5,7.22,4.6,4.43,1.19,1.15v-6.51c5.3-1.99,9.05-6.94,9.05-12.73v-7.1c0-5.79-3.76-10.74-9.05-12.73Z"/>
</svg>